<svg width="14" height="14" viewBox="0 0 14 14" fill="none" xmlns="http://www.w3.org/2000/svg">
<mask id="path-1-inside-1_81_128" fill="white">
<path fill-rule="evenodd" clip-rule="evenodd" d="M7 0C5.60824 0 4.48 1.12824 4.48 2.52V4.48H2.52C1.12824 4.48 0 5.60824 0 7C0 8.39176 1.12824 9.52 2.52 9.52H4.48V11.48C4.48 12.8718 5.60824 14 7 14C8.39176 14 9.52 12.8718 9.52 11.48V9.52H11.48C12.8718 9.52 14 8.39176 14 7C14 5.60824 12.8718 4.48 11.48 4.48H9.52V2.52C9.52 1.12824 8.39176 0 7 0Z"/>
</mask>
<path fill-rule="evenodd" clip-rule="evenodd" d="M7 0C5.60824 0 4.48 1.12824 4.48 2.52V4.48H2.52C1.12824 4.48 0 5.60824 0 7C0 8.39176 1.12824 9.52 2.52 9.52H4.48V11.48C4.48 12.8718 5.60824 14 7 14C8.39176 14 9.52 12.8718 9.52 11.48V9.52H11.48C12.8718 9.52 14 8.39176 14 7C14 5.60824 12.8718 4.48 11.48 4.48H9.52V2.52C9.52 1.12824 8.39176 0 7 0Z" fill="#EEADD0" fill-opacity="0.19"/>
<path d="M4.48 4.48V4.88H4.88V4.48H4.48ZM4.48 9.52H4.88V9.12H4.48V9.52ZM9.52 9.52V9.12H9.12V9.52H9.52ZM9.52 4.48H9.12V4.88H9.52V4.48ZM4.88 2.52C4.88 1.34916 5.82916 0.4 7 0.4V-0.4C5.38733 -0.4 4.08 0.907328 4.08 2.52H4.88ZM4.88 4.48V2.52H4.08V4.48H4.88ZM2.52 4.88H4.48V4.08H2.52V4.88ZM0.4 7C0.4 5.82916 1.34916 4.88 2.52 4.88V4.08C0.907328 4.08 -0.4 5.38733 -0.4 7H0.4ZM2.52 9.12C1.34916 9.12 0.4 8.17084 0.4 7H-0.4C-0.4 8.61267 0.907328 9.92 2.52 9.92V9.12ZM4.48 9.12H2.52V9.92H4.48V9.12ZM4.88 11.48V9.52H4.08V11.48H4.88ZM7 13.6C5.82916 13.6 4.88 12.6508 4.88 11.48H4.08C4.08 13.0927 5.38733 14.4 7 14.4V13.6ZM9.12 11.48C9.12 12.6508 8.17084 13.6 7 13.6V14.4C8.61267 14.4 9.92 13.0927 9.92 11.48H9.12ZM9.12 9.52V11.48H9.92V9.52H9.12ZM11.48 9.12H9.52V9.92H11.48V9.12ZM13.6 7C13.6 8.17084 12.6508 9.12 11.48 9.12V9.92C13.0927 9.92 14.4 8.61267 14.4 7H13.6ZM11.48 4.88C12.6508 4.88 13.6 5.82916 13.6 7H14.4C14.4 5.38733 13.0927 4.08 11.48 4.08V4.88ZM9.52 4.88H11.48V4.08H9.52V4.88ZM9.12 2.52V4.48H9.92V2.52H9.12ZM7 0.4C8.17084 0.4 9.12 1.34916 9.12 2.52H9.92C9.92 0.907328 8.61267 -0.4 7 -0.4V0.4Z" fill="#F488D0" fill-opacity="0.21" mask="url(#path-1-inside-1_81_128)"/>
<path d="M3.3749 4.79509L3.37487 4.79504L3.09202 4.36928L3.09193 4.36915C2.88796 4.06264 2.47642 3.9827 2.17084 4.18541C1.86314 4.38952 1.78297 4.80328 1.9858 5.10806L1.9858 5.10806L1.98615 5.10859L2.27019 5.53251C2.27024 5.53258 2.27029 5.53266 2.27034 5.53273C2.5287 5.92018 2.8732 6.23168 3.26793 6.44934V10.0861C3.26793 10.4534 3.56456 10.7511 3.93209 10.7511C4.29963 10.7511 4.59626 10.4534 4.59626 10.0861V8.89108H4.66043V10.0861C4.66043 10.4534 4.95706 10.7511 5.3246 10.7511C5.69214 10.7511 5.98877 10.4534 5.98877 10.0861V6.45293C6.39573 6.23098 6.74919 5.90861 7.0108 5.5076L7.0109 5.50746L7.2749 5.10204L7.27518 5.1016C7.47442 4.79389 7.38696 4.38306 7.08072 4.18199C6.77264 3.97971 6.36143 4.06814 6.16083 4.37653C6.16077 4.37662 6.16072 4.3767 6.16066 4.37678L5.89695 4.78032L5.8968 4.78055C5.61723 5.20964 5.14191 5.4686 4.63125 5.4686C4.47027 5.4686 4.31315 5.44309 4.1635 5.39454L4.15975 5.39319L4.14881 5.38916C4.14258 5.38691 4.13243 5.38331 4.12002 5.37987C3.81967 5.2713 3.55635 5.06838 3.3749 4.79509ZM5.75668 4.04111C5.75668 3.74153 5.63789 3.45415 5.42633 3.24221C5.21475 3.03025 4.92772 2.91111 4.62835 2.91111C4.32898 2.91111 4.04194 3.03025 3.83037 3.24221C3.6188 3.45415 3.50001 3.74153 3.50001 4.04111C3.50001 4.34069 3.6188 4.62807 3.83037 4.84001C4.04194 5.05196 4.32898 5.1711 4.62835 5.1711C4.92772 5.1711 5.21475 5.05196 5.42633 4.84001C5.63789 4.62807 5.75668 4.34069 5.75668 4.04111Z" fill="#67B4E0" stroke="#025D91" stroke-width="0.4"/>
<mask id="path-4-outside-2_81_128" maskUnits="userSpaceOnUse" x="6.70053" y="2.66907" width="7" height="9" fill="black">
<rect fill="white" x="6.70053" y="2.66907" width="7" height="9"/>
<path fill-rule="evenodd" clip-rule="evenodd" d="M10.1289 5.30029C10.5794 5.30029 10.9446 4.93513 10.9446 4.48468C10.9446 4.03423 10.5794 3.66907 10.1289 3.66907C9.6785 3.66907 9.31334 4.03423 9.31334 4.48468C9.31334 4.93513 9.6785 5.30029 10.1289 5.30029ZM9.58967 5.65176C9.2459 5.5297 8.94419 5.29866 8.73676 4.98624L8.45391 4.56047C8.31176 4.34687 8.02455 4.29019 7.80987 4.4326C7.60913 4.56576 7.72175 4.73323 7.85344 4.92906L7.88105 4.97025L8.16535 5.39456C8.4279 5.78836 8.76359 6.21086 9.17409 6.41429V6.48006L8.63697 9.02027H9.17409V10.1721C9.17409 10.4293 9.20383 10.6316 9.46057 10.6316C9.71732 10.6316 9.92474 10.4238 9.92474 10.1666V9.02027H10.3889V10.1666C10.3889 10.4238 10.5963 10.6316 10.8531 10.6316C11.1098 10.6316 11.1435 10.4313 11.1435 10.1741V9.02027H11.6607L11.1435 6.57422V6.41921C11.5656 6.21286 11.97 5.69483 12.2354 5.28796L12.4994 4.88254L12.5155 4.85777C12.6441 4.65981 12.7057 4.56512 12.4994 4.42969C12.2847 4.28874 11.9975 4.34977 11.8568 4.56629L11.5928 4.97025C11.2766 5.45559 10.7385 5.74912 10.1597 5.74912C9.97696 5.74912 9.79855 5.72006 9.62883 5.66484C9.62448 5.66339 9.62013 5.66177 9.61578 5.66016C9.60708 5.65693 9.59837 5.6537 9.58967 5.65176Z"/>
</mask>
<path fill-rule="evenodd" clip-rule="evenodd" d="M10.1289 5.30029C10.5794 5.30029 10.9446 4.93513 10.9446 4.48468C10.9446 4.03423 10.5794 3.66907 10.1289 3.66907C9.6785 3.66907 9.31334 4.03423 9.31334 4.48468C9.31334 4.93513 9.6785 5.30029 10.1289 5.30029ZM9.58967 5.65176C9.2459 5.5297 8.94419 5.29866 8.73676 4.98624L8.45391 4.56047C8.31176 4.34687 8.02455 4.29019 7.80987 4.4326C7.60913 4.56576 7.72175 4.73323 7.85344 4.92906L7.88105 4.97025L8.16535 5.39456C8.4279 5.78836 8.76359 6.21086 9.17409 6.41429V6.48006L8.63697 9.02027H9.17409V10.1721C9.17409 10.4293 9.20383 10.6316 9.46057 10.6316C9.71732 10.6316 9.92474 10.4238 9.92474 10.1666V9.02027H10.3889V10.1666C10.3889 10.4238 10.5963 10.6316 10.8531 10.6316C11.1098 10.6316 11.1435 10.4313 11.1435 10.1741V9.02027H11.6607L11.1435 6.57422V6.41921C11.5656 6.21286 11.97 5.69483 12.2354 5.28796L12.4994 4.88254L12.5155 4.85777C12.6441 4.65981 12.7057 4.56512 12.4994 4.42969C12.2847 4.28874 11.9975 4.34977 11.8568 4.56629L11.5928 4.97025C11.2766 5.45559 10.7385 5.74912 10.1597 5.74912C9.97696 5.74912 9.79855 5.72006 9.62883 5.66484C9.62448 5.66339 9.62013 5.66177 9.61578 5.66016C9.60708 5.65693 9.59837 5.6537 9.58967 5.65176Z" fill="#67B4E0"/>
<path d="M8.73676 4.98624L9.07 4.76499L9.06994 4.76489L8.73676 4.98624ZM9.58967 5.65176L9.45583 6.02871L9.47888 6.03689L9.50275 6.04221L9.58967 5.65176ZM8.45391 4.56047L8.78709 4.33913L8.78691 4.33887L8.45391 4.56047ZM7.80987 4.4326L8.03099 4.76593H8.03099L7.80987 4.4326ZM7.85344 4.92906L8.18573 4.70639L8.18537 4.70585L7.85344 4.92906ZM7.88105 4.97025L8.21335 4.7476L8.21334 4.74758L7.88105 4.97025ZM8.16535 5.39456L8.49817 5.17267L8.49765 5.17191L8.16535 5.39456ZM9.17409 6.41429H9.57409V6.1661L9.35171 6.05589L9.17409 6.41429ZM9.17409 6.48006L9.56543 6.56281L9.57409 6.52189V6.48006H9.17409ZM8.63697 9.02027L8.24562 8.93752L8.14355 9.42027H8.63697V9.02027ZM9.17409 9.02027H9.57409V8.62027H9.17409V9.02027ZM9.92474 9.02027V8.62027H9.52474V9.02027H9.92474ZM10.3889 9.02027H10.7889V8.62027H10.3889V9.02027ZM11.1435 9.02027V8.62027H10.7435V9.02027H11.1435ZM11.6607 9.02027V9.42027H12.1541L12.052 8.93752L11.6607 9.02027ZM11.1435 6.57422H10.7435V6.61605L10.7521 6.65697L11.1435 6.57422ZM11.1435 6.41921L10.9678 6.05985L10.7435 6.16951V6.41921H11.1435ZM12.2354 5.28796L12.5704 5.50652L12.5706 5.50623L12.2354 5.28796ZM12.4994 4.88254L12.8346 5.10081L12.8349 5.10031L12.4994 4.88254ZM12.5155 4.85777L12.1801 4.63981L12.18 4.64L12.5155 4.85777ZM12.4994 4.42969L12.2799 4.76406L12.2799 4.76406L12.4994 4.42969ZM11.8568 4.56629L12.1917 4.78511L12.1922 4.78424L11.8568 4.56629ZM11.5928 4.97025L11.258 4.75143L11.2577 4.7519L11.5928 4.97025ZM9.62883 5.66484L9.50214 6.04426L9.50507 6.04521L9.62883 5.66484ZM9.61578 5.66016L9.75492 5.28514L9.75492 5.28514L9.61578 5.66016ZM10.5446 4.48468C10.5446 4.71421 10.3585 4.90029 10.1289 4.90029V5.70029C10.8003 5.70029 11.3446 5.15604 11.3446 4.48468H10.5446ZM10.1289 4.06907C10.3585 4.06907 10.5446 4.25514 10.5446 4.48468H11.3446C11.3446 3.81331 10.8003 3.26907 10.1289 3.26907V4.06907ZM9.71334 4.48468C9.71334 4.25514 9.89941 4.06907 10.1289 4.06907V3.26907C9.45758 3.26907 8.91334 3.81331 8.91334 4.48468H9.71334ZM10.1289 4.90029C9.89941 4.90029 9.71334 4.71421 9.71334 4.48468H8.91334C8.91334 5.15604 9.45758 5.70029 10.1289 5.70029V4.90029ZM8.40352 5.20749C8.65965 5.59326 9.03192 5.87819 9.45583 6.02871L9.72351 5.27482C9.45987 5.18121 9.22872 5.00405 9.07 4.76499L8.40352 5.20749ZM8.12073 4.78182L8.40358 5.20758L9.06994 4.76489L8.78709 4.33913L8.12073 4.78182ZM8.03099 4.76593C8.06385 4.74413 8.1024 4.75427 8.12091 4.78208L8.78691 4.33887C8.52111 3.93946 7.98525 3.83626 7.58876 4.09927L8.03099 4.76593ZM8.18537 4.70585C8.15052 4.65402 8.12741 4.61931 8.11 4.58889C8.09208 4.55758 8.09331 4.55276 8.09637 4.56573C8.10086 4.58485 8.10695 4.63445 8.08272 4.69261C8.05964 4.74802 8.02653 4.76889 8.03099 4.76593L7.58876 4.09927C7.49285 4.16289 7.39853 4.25462 7.34422 4.38501C7.28877 4.51814 7.2936 4.64682 7.31762 4.74893C7.35764 4.919 7.47117 5.07741 7.52152 5.15228L8.18537 4.70585ZM8.21334 4.74758L8.18573 4.70639L7.52116 5.15174L7.54876 5.19293L8.21334 4.74758ZM8.49765 5.17191L8.21335 4.7476L7.54874 5.19291L7.83305 5.61722L8.49765 5.17191ZM9.35171 6.05589C9.04385 5.90333 8.75773 5.56199 8.49816 5.17267L7.83254 5.61645C8.09807 6.01472 8.48332 6.51839 8.99647 6.7727L9.35171 6.05589ZM9.57409 6.48006V6.41429H8.77409V6.48006H9.57409ZM9.02832 9.10302L9.56543 6.56281L8.78274 6.39731L8.24562 8.93752L9.02832 9.10302ZM9.17409 8.62027H8.63697V9.42027H9.17409V8.62027ZM9.57409 10.1721V9.02027H8.77409V10.1721H9.57409ZM9.46057 10.2316C9.44834 10.2316 9.47332 10.2293 9.51103 10.2516C9.55168 10.2756 9.57357 10.3082 9.58197 10.3258C9.58779 10.338 9.58369 10.3354 9.57974 10.3034C9.57594 10.2726 9.57409 10.2309 9.57409 10.1721H8.77409C8.77409 10.2936 8.77652 10.4957 8.86013 10.6707C8.90806 10.771 8.98552 10.8703 9.10396 10.9403C9.21946 11.0086 9.34444 11.0316 9.46057 11.0316V10.2316ZM9.52474 10.1666C9.52474 10.2036 9.49573 10.2316 9.46057 10.2316V11.0316C9.9389 11.0316 10.3247 10.644 10.3247 10.1666H9.52474ZM9.52474 9.02027V10.1666H10.3247V9.02027H9.52474ZM10.3889 8.62027H9.92474V9.42027H10.3889V8.62027ZM10.7889 10.1666V9.02027H9.98891V10.1666H10.7889ZM10.8531 10.2316C10.8179 10.2316 10.7889 10.2036 10.7889 10.1666H9.98891C9.98891 10.644 10.3747 11.0316 10.8531 11.0316V10.2316ZM10.7435 10.1741C10.7435 10.2318 10.7415 10.2726 10.7376 10.3023C10.7336 10.3332 10.7296 10.3351 10.7357 10.3225C10.7395 10.3149 10.7468 10.3024 10.7593 10.2883C10.7723 10.2738 10.7881 10.2607 10.8059 10.2504C10.8423 10.2292 10.8658 10.2316 10.8531 10.2316V11.0316C10.9687 11.0316 11.0927 11.0089 11.2076 10.9422C11.3256 10.8737 11.4041 10.7761 11.4534 10.676C11.5398 10.5005 11.5435 10.2982 11.5435 10.1741H10.7435ZM10.7435 9.02027V10.1741H11.5435V9.02027H10.7435ZM11.6607 8.62027H11.1435V9.42027H11.6607V8.62027ZM10.7521 6.65697L11.2693 9.10302L12.052 8.93752L11.5348 6.49147L10.7521 6.65697ZM10.7435 6.41921V6.57422H11.5435V6.41921H10.7435ZM11.9004 5.06939C11.775 5.26164 11.6203 5.47441 11.452 5.66001C11.2797 5.84984 11.1132 5.98879 10.9678 6.05985L11.3192 6.77857C11.5959 6.64327 11.8426 6.42004 12.0445 6.19755C12.2502 5.97082 12.4304 5.72115 12.5704 5.50652L11.9004 5.06939ZM12.1642 4.66427L11.9002 5.06969L12.5706 5.50623L12.8346 5.10081L12.1642 4.66427ZM12.18 4.64L12.1639 4.66476L12.8349 5.10031L12.851 5.07554L12.18 4.64ZM12.2799 4.76406C12.3111 4.78454 12.2976 4.78192 12.2769 4.75179C12.265 4.7343 12.2516 4.70891 12.2428 4.67629C12.2339 4.64333 12.2323 4.61206 12.2346 4.58563C12.2386 4.53926 12.2542 4.51777 12.2431 4.5387C12.2324 4.55873 12.2153 4.58567 12.1801 4.63981L12.8509 5.07574C12.88 5.0309 12.9189 4.97176 12.9495 4.91413C12.9796 4.85739 13.0218 4.76665 13.0315 4.65494C13.057 4.36282 12.8586 4.187 12.719 4.09532L12.2799 4.76406ZM12.1922 4.78424C12.2133 4.7519 12.2522 4.74586 12.2799 4.76406L12.719 4.09532C12.3173 3.83162 11.7818 3.94764 11.5214 4.34833L12.1922 4.78424ZM11.9277 5.18907L12.1917 4.78511L11.522 4.34747L11.258 4.75143L11.9277 5.18907ZM10.1597 6.14912C10.8747 6.14912 11.5385 5.78646 11.928 5.18861L11.2577 4.7519C11.0148 5.12472 10.6023 5.34912 10.1597 5.34912V6.14912ZM9.50507 6.04521C9.71415 6.11324 9.9343 6.14912 10.1597 6.14912V5.34912C10.0196 5.34912 9.88295 5.32688 9.75259 5.28447L9.50507 6.04521ZM9.47663 6.03518C9.4799 6.03639 9.49047 6.04035 9.50214 6.04425L9.75553 5.28544L9.75492 5.28514L9.47663 6.03518ZM9.50275 6.04221C9.48924 6.0392 9.47959 6.03607 9.47603 6.03488C9.47409 6.03423 9.47296 6.03382 9.47318 6.0339C9.47356 6.03404 9.4742 6.03428 9.47664 6.03518L9.75492 5.28514C9.75131 5.2838 9.71664 5.27024 9.67659 5.26132L9.50275 6.04221Z" fill="#025D91" mask="url(#path-4-outside-2_81_128)"/>
</svg>
