<svg width="27" height="27" viewBox="0 0 27 27" fill="none" xmlns="http://www.w3.org/2000/svg">
<mask id="path-1-inside-1_22_7" fill="white">
<path fill-rule="evenodd" clip-rule="evenodd" d="M13.5 0C10.8159 0 8.64 2.1759 8.64 4.86V8.64H4.86C2.1759 8.64 0 10.8159 0 13.5C0 16.1841 2.1759 18.36 4.86 18.36H8.64V22.14C8.64 24.8241 10.8159 27 13.5 27C16.1841 27 18.36 24.8241 18.36 22.14V18.36H22.14C24.8241 18.36 27 16.1841 27 13.5C27 10.8159 24.8241 8.64 22.14 8.64H18.36V4.86C18.36 2.1759 16.1841 0 13.5 0Z"/>
</mask>
<path fill-rule="evenodd" clip-rule="evenodd" d="M13.5 0C10.8159 0 8.64 2.1759 8.64 4.86V8.64H4.86C2.1759 8.64 0 10.8159 0 13.5C0 16.1841 2.1759 18.36 4.86 18.36H8.64V22.14C8.64 24.8241 10.8159 27 13.5 27C16.1841 27 18.36 24.8241 18.36 22.14V18.36H22.14C24.8241 18.36 27 16.1841 27 13.5C27 10.8159 24.8241 8.64 22.14 8.64H18.36V4.86C18.36 2.1759 16.1841 0 13.5 0Z" fill="#EEADD0" fill-opacity="0.19"/>
<path d="M8.64 8.64V9.04H9.04V8.64H8.64ZM8.64 18.36H9.04V17.96H8.64V18.36ZM18.36 18.36V17.96H17.96V18.36H18.36ZM18.36 8.64H17.96V9.04H18.36V8.64ZM9.04 4.86C9.04 2.39681 11.0368 0.4 13.5 0.4V-0.4C10.595 -0.4 8.24 1.95498 8.24 4.86H9.04ZM9.04 8.64V4.86H8.24V8.64H9.04ZM4.86 9.04H8.64V8.24H4.86V9.04ZM0.4 13.5C0.4 11.0368 2.39681 9.04 4.86 9.04V8.24C1.95498 8.24 -0.4 10.595 -0.4 13.5H0.4ZM4.86 17.96C2.39681 17.96 0.4 15.9632 0.4 13.5H-0.4C-0.4 16.405 1.95498 18.76 4.86 18.76V17.96ZM8.64 17.96H4.86V18.76H8.64V17.96ZM9.04 22.14V18.36H8.24V22.14H9.04ZM13.5 26.6C11.0368 26.6 9.04 24.6032 9.04 22.14H8.24C8.24 25.045 10.595 27.4 13.5 27.4V26.6ZM17.96 22.14C17.96 24.6032 15.9632 26.6 13.5 26.6V27.4C16.405 27.4 18.76 25.045 18.76 22.14H17.96ZM17.96 18.36V22.14H18.76V18.36H17.96ZM22.14 17.96H18.36V18.76H22.14V17.96ZM26.6 13.5C26.6 15.9632 24.6032 17.96 22.14 17.96V18.76C25.045 18.76 27.4 16.405 27.4 13.5H26.6ZM22.14 9.04C24.6032 9.04 26.6 11.0368 26.6 13.5H27.4C27.4 10.595 25.045 8.24 22.14 8.24V9.04ZM18.36 9.04H22.14V8.24H18.36V9.04ZM17.96 4.86V8.64H18.76V4.86H17.96ZM13.5 0.4C15.9632 0.4 17.96 2.39681 17.96 4.86H18.76C18.76 1.95498 16.405 -0.4 13.5 -0.4V0.4Z" fill="#F488D0" fill-opacity="0.21" mask="url(#path-1-inside-1_22_7)"/>
<path d="M6.35404 9.35039L6.354 9.35034L5.8085 8.52923L5.80841 8.52909C5.47244 8.02424 4.79422 7.89168 4.28929 8.22662C3.78225 8.56296 3.64955 9.24524 3.98437 9.74837L3.98437 9.74837L3.98472 9.74889L4.53277 10.5668C4.5328 10.5669 4.53282 10.5669 4.53285 10.5669C5.03515 11.3203 5.71223 11.9197 6.48816 12.3271V19.4517C6.48816 20.0579 6.9774 20.5485 7.58334 20.5485C8.18928 20.5485 8.67852 20.0579 8.67852 19.4517V16.9614H9.1737V19.4517C9.1737 20.0579 9.66294 20.5485 10.2689 20.5485C10.8748 20.5485 11.3641 20.0579 11.3641 19.4517V12.3334C12.163 11.919 12.8571 11.2993 13.3653 10.5203L13.3654 10.5202L13.8745 9.73829L13.8748 9.73786C14.2034 9.23045 14.0593 8.55245 13.5538 8.22049C13.0463 7.88729 12.3683 8.03247 12.0371 8.54207C12.037 8.54209 12.037 8.54211 12.037 8.54213L11.5282 9.32078L11.528 9.32101C10.9548 10.2008 9.97979 10.7323 8.93171 10.7323C8.60083 10.7323 8.27787 10.6797 7.97048 10.5798C7.96527 10.5781 7.96161 10.5767 7.95613 10.5746C7.95181 10.573 7.94636 10.571 7.93811 10.568C7.92622 10.5637 7.90938 10.5578 7.88995 10.5527C7.27088 10.3307 6.72785 9.91342 6.35404 9.35039ZM10.9165 7.79356C10.9165 7.26495 10.7069 6.75792 10.3336 6.38403C9.9604 6.01012 9.4541 5.8 8.92611 5.8C8.39812 5.8 7.89182 6.01012 7.51859 6.38403C7.14536 6.75792 6.93575 7.26495 6.93575 7.79356C6.93575 8.32217 7.14536 8.8292 7.51859 9.2031C7.89182 9.577 8.39812 9.78712 8.92611 9.78712C9.4541 9.78712 9.9604 9.577 10.3336 9.2031C10.7069 8.8292 10.9165 8.32217 10.9165 7.79356Z" fill="#67B4E0" stroke="#025D91" stroke-width="0.4"/>
<mask id="path-4-outside-2_22_7" maskUnits="userSpaceOnUse" x="13.8511" y="6.07605" width="11" height="15" fill="black">
<rect fill="white" x="13.8511" y="6.07605" width="11" height="15"/>
<path fill-rule="evenodd" clip-rule="evenodd" d="M19.5345 10.222C20.4032 10.222 21.1074 9.51774 21.1074 8.64901C21.1074 7.78029 20.4032 7.07605 19.5345 7.07605C18.6657 7.07605 17.9615 7.78029 17.9615 8.64901C17.9615 9.51774 18.6657 10.222 19.5345 10.222ZM18.4944 10.8998C17.8314 10.6644 17.2496 10.2188 16.8495 9.6163L16.304 8.79519C16.0299 8.38323 15.476 8.27393 15.062 8.54857C14.6748 8.80538 14.892 9.12836 15.146 9.50604L15.146 9.50608C15.1636 9.53228 15.1814 9.55875 15.1992 9.58547L15.7475 10.4038C16.2538 11.1632 16.9013 11.9781 17.6929 12.3704V12.4973L16.6571 17.3962H17.6929V19.6175C17.6929 20.1135 17.7503 20.5038 18.2454 20.5038C18.7406 20.5038 19.1406 20.103 19.1406 19.607V17.3962H20.0358V19.607C20.0358 20.103 20.4358 20.5038 20.931 20.5038C21.4261 20.5038 21.4911 20.1174 21.4911 19.6214V17.3962H22.4885L21.4911 12.6788V12.3799C22.3051 11.9819 23.085 10.9829 23.597 10.1982L24.1061 9.41631L24.1371 9.36855C24.3852 8.98677 24.5039 8.80414 24.1061 8.54297C23.6921 8.27113 23.1382 8.38883 22.8668 8.8064L22.3577 9.58547C21.7478 10.5215 20.71 11.0876 19.5938 11.0876C19.2413 11.0876 18.8972 11.0315 18.5699 10.925C18.5616 10.9222 18.5532 10.9191 18.5448 10.916C18.528 10.9098 18.5112 10.9036 18.4944 10.8998Z"/>
</mask>
<path fill-rule="evenodd" clip-rule="evenodd" d="M19.5345 10.222C20.4032 10.222 21.1074 9.51774 21.1074 8.64901C21.1074 7.78029 20.4032 7.07605 19.5345 7.07605C18.6657 7.07605 17.9615 7.78029 17.9615 8.64901C17.9615 9.51774 18.6657 10.222 19.5345 10.222ZM18.4944 10.8998C17.8314 10.6644 17.2496 10.2188 16.8495 9.6163L16.304 8.79519C16.0299 8.38323 15.476 8.27393 15.062 8.54857C14.6748 8.80538 14.892 9.12836 15.146 9.50604L15.146 9.50608C15.1636 9.53228 15.1814 9.55875 15.1992 9.58547L15.7475 10.4038C16.2538 11.1632 16.9013 11.9781 17.6929 12.3704V12.4973L16.6571 17.3962H17.6929V19.6175C17.6929 20.1135 17.7503 20.5038 18.2454 20.5038C18.7406 20.5038 19.1406 20.103 19.1406 19.607V17.3962H20.0358V19.607C20.0358 20.103 20.4358 20.5038 20.931 20.5038C21.4261 20.5038 21.4911 20.1174 21.4911 19.6214V17.3962H22.4885L21.4911 12.6788V12.3799C22.3051 11.9819 23.085 10.9829 23.597 10.1982L24.1061 9.41631L24.1371 9.36855C24.3852 8.98677 24.5039 8.80414 24.1061 8.54297C23.6921 8.27113 23.1382 8.38883 22.8668 8.8064L22.3577 9.58547C21.7478 10.5215 20.71 11.0876 19.5938 11.0876C19.2413 11.0876 18.8972 11.0315 18.5699 10.925C18.5616 10.9222 18.5532 10.9191 18.5448 10.916C18.528 10.9098 18.5112 10.9036 18.4944 10.8998Z" fill="#67B4E0"/>
<path d="M16.8495 9.6163L17.1828 9.39505L17.1827 9.39496L16.8495 9.6163ZM18.4944 10.8998L18.3606 11.2768L18.3836 11.2849L18.4075 11.2903L18.4944 10.8998ZM16.304 8.79519L16.6372 8.57384L16.637 8.57358L16.304 8.79519ZM15.062 8.54857L15.2831 8.8819L15.2831 8.8819L15.062 8.54857ZM15.146 9.50604L14.8141 9.72925L14.8142 9.72942L15.146 9.50604ZM15.146 9.50608L15.4779 9.28286L15.4778 9.28269L15.146 9.50608ZM15.1992 9.58547L14.8662 9.80708L14.8669 9.80813L15.1992 9.58547ZM15.7475 10.4038L16.0803 10.1819L16.0798 10.1811L15.7475 10.4038ZM17.6929 12.3704H18.0929V12.1222L17.8706 12.012L17.6929 12.3704ZM17.6929 12.4973L18.0843 12.5801L18.0929 12.5391V12.4973H17.6929ZM16.6571 17.3962L16.2657 17.3135L16.1637 17.7962H16.6571V17.3962ZM17.6929 17.3962H18.0929V16.9962H17.6929V17.3962ZM19.1406 17.3962V16.9962H18.7406V17.3962H19.1406ZM20.0358 17.3962H20.4358V16.9962H20.0358V17.3962ZM21.4911 17.3962V16.9962H21.0911V17.3962H21.4911ZM22.4885 17.3962V17.7962H22.982L22.8799 17.3135L22.4885 17.3962ZM21.4911 12.6788H21.0911V12.7206L21.0997 12.7615L21.4911 12.6788ZM21.4911 12.3799L21.3154 12.0205L21.0911 12.1302V12.3799H21.4911ZM23.597 10.1982L23.932 10.4167L23.9321 10.4165L23.597 10.1982ZM24.1061 9.41631L24.4413 9.63458L24.4416 9.63408L24.1061 9.41631ZM24.1371 9.36855L23.8017 9.15058L23.8016 9.15077L24.1371 9.36855ZM24.1061 8.54297L23.8865 8.87733L24.1061 8.54297ZM22.8668 8.8064L23.2017 9.02522L23.2022 9.02435L22.8668 8.8064ZM22.3577 9.58547L22.0228 9.36665L22.0225 9.36712L22.3577 9.58547ZM18.5699 10.925L18.4432 11.3045L18.4462 11.3054L18.5699 10.925ZM18.5448 10.916L18.4056 11.291L18.4056 11.291L18.5448 10.916ZM20.7074 8.64901C20.7074 9.29682 20.1823 9.82197 19.5345 9.82197V10.622C20.6241 10.622 21.5074 9.73865 21.5074 8.64901H20.7074ZM19.5345 7.47605C20.1823 7.47605 20.7074 8.0012 20.7074 8.64901H21.5074C21.5074 7.55937 20.6241 6.67605 19.5345 6.67605V7.47605ZM18.3615 8.64901C18.3615 8.0012 18.8866 7.47605 19.5345 7.47605V6.67605C18.4448 6.67605 17.5615 7.55937 17.5615 8.64901H18.3615ZM19.5345 9.82197C18.8866 9.82197 18.3615 9.29682 18.3615 8.64901H17.5615C17.5615 9.73865 18.4448 10.622 19.5345 10.622V9.82197ZM16.5163 9.83755C16.965 10.5134 17.6174 11.0129 18.3606 11.2768L18.6283 10.5229C18.0454 10.3159 17.5341 9.92422 17.1828 9.39505L16.5163 9.83755ZM15.9708 9.01653L16.5163 9.83764L17.1827 9.39496L16.6372 8.57384L15.9708 9.01653ZM15.2831 8.8819C15.5153 8.72787 15.8205 8.79063 15.971 9.01679L16.637 8.57358C16.2392 7.97582 15.4367 7.82 14.8408 8.21524L15.2831 8.8819ZM15.4779 9.28282C15.4125 9.18553 15.3599 9.107 15.3184 9.0345C15.2764 8.96111 15.2589 8.91594 15.2529 8.89038C15.2483 8.87096 15.255 8.88386 15.2453 8.90721C15.2367 8.92781 15.232 8.91577 15.2831 8.8819L14.8408 8.21524C14.6983 8.30978 14.5756 8.43441 14.5068 8.59961C14.4368 8.76754 14.4411 8.93294 14.4742 9.07358C14.5323 9.32072 14.7026 9.56347 14.8141 9.72925L15.4779 9.28282ZM15.4778 9.28269L15.4778 9.28265L14.8142 9.72942L14.8142 9.72947L15.4778 9.28269ZM15.5322 9.36387C15.5138 9.3362 15.4955 9.30894 15.4779 9.28286L14.8141 9.72929C14.8318 9.75562 14.849 9.78129 14.8662 9.80708L15.5322 9.36387ZM16.0798 10.1811L15.5315 9.36282L14.8669 9.80813L15.4152 10.6264L16.0798 10.1811ZM17.8706 12.012C17.1815 11.6705 16.5837 10.9369 16.0803 10.1819L15.4147 10.6257C15.924 11.3896 16.621 12.2856 17.5153 12.7288L17.8706 12.012ZM18.0929 12.4973V12.3704H17.2929V12.4973H18.0929ZM17.0484 17.479L18.0843 12.5801L17.3016 12.4146L16.2657 17.3135L17.0484 17.479ZM17.6929 16.9962H16.6571V17.7962H17.6929V16.9962ZM18.0929 19.6175V17.3962H17.2929V19.6175H18.0929ZM18.2454 20.1038C18.2095 20.1038 18.1861 20.1002 18.1721 20.0969C18.1651 20.0952 18.1606 20.0937 18.1578 20.0926C18.1551 20.0915 18.1539 20.0908 18.1538 20.0907C18.1536 20.0906 18.1539 20.0908 18.1543 20.0912C18.1548 20.0915 18.1549 20.0917 18.1545 20.0913C18.1539 20.0906 18.15 20.086 18.1444 20.0742C18.1319 20.048 18.1169 19.9995 18.1066 19.9163C18.0965 19.8343 18.0929 19.736 18.0929 19.6175H17.2929C17.2929 19.8584 17.3023 20.1673 17.4226 20.4191C17.4889 20.5578 17.5921 20.688 17.7467 20.7794C17.8983 20.869 18.0697 20.9038 18.2454 20.9038V20.1038ZM18.7406 19.607C18.7406 19.8828 18.519 20.1038 18.2454 20.1038V20.9038C18.9622 20.9038 19.5406 20.3233 19.5406 19.607H18.7406ZM18.7406 17.3962V19.607H19.5406V17.3962H18.7406ZM20.0358 16.9962H19.1406V17.7962H20.0358V16.9962ZM20.4358 19.607V17.3962H19.6358V19.607H20.4358ZM20.931 20.1038C20.6574 20.1038 20.4358 19.8828 20.4358 19.607H19.6358C19.6358 20.3233 20.2143 20.9038 20.931 20.9038V20.1038ZM21.0911 19.6214C21.0911 19.7388 21.0871 19.836 21.0765 19.9168C21.0659 19.9987 21.0505 20.0462 21.0379 20.0718C21.0322 20.0833 21.0282 20.088 21.0273 20.0891C21.0268 20.0897 21.027 20.0895 21.0265 20.0898C21.0265 20.0898 21.0033 20.1038 20.931 20.1038V20.9038C21.1062 20.9038 21.2769 20.8695 21.4283 20.7816C21.5826 20.6919 21.6874 20.5636 21.7555 20.4254C21.8796 20.1735 21.8911 19.8649 21.8911 19.6214H21.0911ZM21.0911 17.3962V19.6214H21.8911V17.3962H21.0911ZM22.4885 16.9962H21.4911V17.7962H22.4885V16.9962ZM21.0997 12.7615L22.0972 17.479L22.8799 17.3135L21.8824 12.596L21.0997 12.7615ZM21.0911 12.3799V12.6788H21.8911V12.3799H21.0911ZM23.2619 9.97963C23.0133 10.3608 22.7031 10.7883 22.3611 11.1653C22.0152 11.5466 21.6567 11.8537 21.3154 12.0205L21.6667 12.7392C22.1395 12.5082 22.578 12.1168 22.9535 11.7028C23.3329 11.2847 23.6687 10.8203 23.932 10.4167L23.2619 9.97963ZM23.7709 9.19804L23.2618 9.97992L23.9321 10.4165L24.4413 9.63458L23.7709 9.19804ZM23.8016 9.15077L23.7706 9.19853L24.4416 9.63408L24.4726 9.58632L23.8016 9.15077ZM23.8865 8.87733C23.9656 8.92925 23.9845 8.9557 23.9835 8.95437C23.9814 8.95128 23.9747 8.94023 23.9698 8.92213C23.9649 8.90369 23.9643 8.88713 23.9653 8.87587C23.9667 8.85985 23.9699 8.87052 23.9396 8.9275C23.9098 8.98359 23.8667 9.05049 23.8017 9.15058L24.4725 9.58651C24.5315 9.49572 24.5963 9.39662 24.6461 9.30294C24.6954 9.21014 24.7499 9.08724 24.7623 8.94519C24.793 8.59239 24.561 8.36315 24.3256 8.2086L23.8865 8.87733ZM23.2022 9.02435C23.3539 8.79096 23.6595 8.72825 23.8865 8.87733L24.3256 8.2086C23.7246 7.81401 22.9225 7.98671 22.5314 8.58844L23.2022 9.02435ZM22.6925 9.80429L23.2017 9.02522L22.532 8.58757L22.0228 9.36665L22.6925 9.80429ZM19.5938 11.4876C20.8462 11.4876 22.0097 10.8524 22.6928 9.80383L22.0225 9.36712C21.486 10.1906 20.5738 10.6876 19.5938 10.6876V11.4876ZM18.4462 11.3054C18.8128 11.4247 19.1987 11.4876 19.5938 11.4876V10.6876C19.284 10.6876 18.9816 10.6384 18.6937 10.5447L18.4462 11.3054ZM18.4056 11.291C18.4129 11.2937 18.4275 11.2992 18.4433 11.3044L18.6966 10.5456C18.6966 10.5456 18.6964 10.5456 18.6958 10.5454C18.6953 10.5452 18.6945 10.5449 18.6934 10.5445C18.691 10.5436 18.6884 10.5426 18.6839 10.541L18.4056 11.291ZM18.4075 11.2903C18.4025 11.2892 18.3988 11.2881 18.3965 11.2875C18.3953 11.2871 18.3944 11.2869 18.3938 11.2867C18.3932 11.2865 18.3929 11.2864 18.3929 11.2864C18.3929 11.2864 18.3931 11.2865 18.3937 11.2867C18.3942 11.2869 18.395 11.2871 18.3961 11.2875C18.3985 11.2884 18.4012 11.2894 18.4056 11.291L18.6839 10.541C18.6722 10.5367 18.6295 10.5201 18.5813 10.5094L18.4075 11.2903Z" fill="#025D91" mask="url(#path-4-outside-2_22_7)"/>
</svg>
